<?xml version="1.0" standalone="no"?>
<!DOCTYPE svg PUBLIC "-//W3C//DTD SVG 20010904//EN"
 "http://www.w3.org/TR/2001/REC-SVG-20010904/DTD/svg10.dtd">
<svg version="1.0" xmlns="http://www.w3.org/2000/svg"
 width="1024.000000pt" height="1024.000000pt" viewBox="0 0 1024.000000 1024.000000"
 preserveAspectRatio="xMidYMid meet">
<metadata>
Created by potrace 1.14, written by Peter Selinger 2001-2017
</metadata>
<g transform="translate(0.000000,1024.000000) scale(0.100000,-0.100000)"
fill="#000000" stroke="none">
<path d="M1735 7653 c-103 -38 -183 -112 -226 -212 -19 -43 -20 -74 -17 -890
3 -842 3 -846 26 -926 125 -447 539 -733 962 -664 129 21 223 61 332 141 l67
49 53 -41 c66 -51 194 -114 273 -135 33 -9 103 -18 155 -21 396 -24 775 276
887 703 24 92 26 116 30 388 2 160 0 535 -4 835 -9 541 -9 545 -31 588 -35 67
-100 131 -167 165 -54 28 -69 31 -150 32 -82 0 -95 -3 -151 -32 -68 -36 -131
-101 -166 -171 l-23 -47 -5 -830 c-5 -766 -6 -832 -22 -862 -26 -47 -81 -85
-132 -90 -60 -7 -89 1 -131 39 -75 65 -69 0 -75 918 -5 821 -5 825 -27 872
-30 66 -102 139 -170 174 -51 25 -69 29 -143 29 -73 0 -93 -4 -142 -28 -73
-36 -139 -101 -175 -175 l-28 -57 -5 -825 c-5 -900 -2 -853 -62 -906 -36 -34
-63 -44 -113 -44 -50 0 -77 10 -113 44 -60 54 -57 6 -62 911 l-5 830 -28 56
c-73 150 -265 234 -412 182z"/>
<path d="M5470 7653 c-340 -56 -550 -160 -770 -382 -162 -163 -264 -322 -323
-506 -39 -121 -46 -151 -62 -260 -51 -349 40 -719 242 -990 223 -297 517 -474
877 -526 40 -6 248 -10 475 -9 383 1 407 2 450 21 61 27 89 54 117 114 l24 50
0 438 c0 368 -3 450 -16 510 -31 138 -103 261 -207 357 -62 57 -86 73 -168
115 -97 49 -189 65 -386 65 -164 0 -169 -1 -228 -29 -72 -34 -136 -95 -173
-165 -24 -46 -27 -62 -27 -151 0 -84 4 -107 23 -146 30 -62 94 -124 162 -157
50 -24 69 -27 195 -32 l140 -5 3 -159 3 -158 -158 4 c-139 4 -167 7 -231 30
-107 38 -177 83 -262 168 -124 124 -177 248 -187 437 -5 89 -2 128 12 185 56
234 217 406 452 485 40 13 115 17 428 22 l380 6 55 26 c70 33 136 99 169 169
35 74 37 201 4 272 -30 66 -102 139 -170 174 l-58 29 -380 1 c-209 1 -391 0
-405 -3z"/>
<path d="M7710 7649 c-457 -78 -826 -359 -1002 -763 -109 -249 -147 -496 -114
-746 78 -597 524 -1062 1103 -1149 43 -7 238 -11 485 -11 l413 0 51 24 c28 13
63 39 77 58 57 75 57 71 57 537 0 454 -4 500 -49 622 -63 167 -229 327 -411
394 -71 27 -87 28 -278 33 l-203 4 -66 -32 c-76 -38 -134 -94 -171 -165 -20
-39 -26 -69 -30 -135 -5 -113 20 -183 92 -255 80 -79 107 -89 276 -95 l145 -5
3 -159 3 -158 -163 5 c-108 3 -179 10 -211 21 -199 65 -357 221 -428 423 -29
82 -36 263 -15 363 41 193 177 369 351 454 126 61 164 66 531 66 393 0 420 5
521 87 27 21 54 58 75 101 30 60 33 75 33 152 -1 73 -5 95 -28 142 -35 72 -98
135 -167 167 l-55 26 -385 1 c-212 1 -410 -2 -440 -7z"/>
<path d="M3478 4504 c-15 -14 -8 -311 13 -552 15 -178 18 -251 11 -267 -8 -18
-8 -26 2 -34 18 -15 19 -120 6 -438 -10 -264 -25 -432 -39 -446 -5 -5 -17 44
-26 109 -15 96 -17 152 -12 308 4 105 12 223 18 261 22 148 28 189 25 192 -2
2 -18 -43 -37 -99 -18 -57 -36 -107 -40 -111 -3 -4 -9 45 -13 109 -7 120 -23
214 -50 294 l-16 45 5 -90 c3 -49 8 -119 12 -154 6 -59 5 -63 -13 -58 -16 5
-30 -16 -89 -138 -38 -80 -74 -143 -80 -142 -5 2 -19 47 -30 100 -19 95 -19
101 -2 238 16 122 35 207 62 272 4 10 3 17 -3 17 -9 0 -39 -43 -90 -130 -6
-10 -19 7 -46 64 -36 75 -38 81 -26 120 20 66 85 195 143 284 30 45 51 82 46
82 -40 0 -183 -191 -249 -333 -25 -53 -49 -96 -55 -96 -5 0 -30 33 -55 74 -25
42 -67 97 -94 123 -27 26 -47 43 -44 37 3 -5 30 -53 61 -105 35 -59 65 -127
81 -181 l24 -86 -39 -137 c-40 -139 -62 -196 -78 -196 -5 0 -12 55 -15 123
-19 350 -44 564 -59 506 -3 -14 -14 -104 -22 -199 -9 -96 -18 -176 -20 -178
-5 -6 -145 265 -145 282 0 9 6 32 14 51 12 28 12 33 1 29 -24 -10 -45 -71 -46
-136 0 -34 -6 -110 -13 -168 -12 -102 -13 -104 -27 -75 -8 17 -22 42 -32 56
-15 23 -16 35 -8 95 17 114 70 245 127 313 14 18 25 34 22 36 -12 13 -130
-138 -159 -205 -8 -16 -19 -30 -24 -30 -12 0 -37 82 -38 126 0 21 -5 30 -13
27 -8 -3 -15 11 -19 41 -4 26 -11 49 -16 52 -5 3 -9 15 -9 26 0 12 -3 19 -6
16 -3 -4 3 -45 12 -93 18 -84 18 -87 0 -118 -11 -18 -32 -56 -48 -84 -16 -29
-33 -53 -36 -53 -4 0 -22 24 -40 52 -29 48 -32 51 -32 25 0 -15 7 -60 16 -99
14 -59 14 -78 4 -112 -7 -23 -16 -52 -19 -65 -6 -22 -12 -15 -46 57 -54 116
-84 138 -49 36 30 -87 43 -176 37 -243 -8 -97 -16 -102 -42 -29 -13 35 -27 67
-32 73 -5 5 -9 -32 -10 -90 -1 -55 -4 -111 -8 -124 -6 -21 -8 -17 -19 28 -17
75 -14 221 8 406 17 138 26 207 55 395 l6 35 -15 -30 c-14 -30 -96 -386 -96
-419 0 -39 -25 -6 -31 40 -14 108 -80 334 -121 419 -24 47 -68 108 -74 102 -3
-2 4 -26 14 -53 41 -103 83 -328 102 -534 14 -143 15 -545 2 -605 l-8 -40 -12
55 c-6 30 -28 168 -48 305 -51 355 -81 532 -94 553 -8 12 -10 -88 -5 -378 l5
-395 -23 55 c-37 86 -74 152 -102 185 -30 34 -31 44 5 -95 32 -127 57 -378 62
-640 l2 -134 -34 -7 c-87 -18 -107 -118 -33 -158 18 -9 857 -12 3600 -15 3829
-4 3616 -6 3643 43 26 49 -6 117 -58 123 -27 3 -27 4 -23 63 3 66 15 139 25
170 5 13 2 11 -8 -5 -8 -14 -15 -33 -16 -42 0 -10 -4 -18 -9 -18 -12 0 -20
379 -8 405 6 14 1 12 -17 -8 -20 -22 -31 -27 -49 -21 -19 6 -20 5 -8 -9 11
-14 10 -23 -9 -62 -12 -25 -25 -45 -29 -45 -4 0 -13 20 -20 45 -14 47 -33 52
-30 7 4 -59 -2 -143 -10 -138 -5 3 -12 22 -16 42 -3 20 -16 49 -27 65 -17 23
-19 36 -14 76 7 48 7 48 -10 23 -10 -14 -19 -27 -21 -30 -3 -3 -9 3 -14 13
-16 27 -26 20 -21 -14 4 -30 -15 -109 -27 -109 -8 0 -28 58 -48 140 -15 61
-17 63 -24 36 -5 -17 -15 -34 -24 -38 -12 -7 -15 -31 -15 -128 0 -122 -14
-167 -25 -83 -4 27 -11 62 -16 78 -5 17 -10 68 -11 115 -1 90 -6 110 -18 90
-10 -17 -30 -3 -30 21 0 10 -4 19 -9 19 -5 0 -11 -42 -13 -92 -3 -57 -10 -104
-20 -122 l-15 -29 -13 65 c-8 47 -9 71 -1 86 12 22 6 33 -14 25 -10 -3 -15 8
-17 44 l-3 48 -8 -40 c-5 -22 -12 -47 -17 -57 -5 -10 -5 -30 0 -50 6 -18 10
-82 10 -143 0 -88 -5 -125 -24 -185 l-24 -75 -2 50 c-2 94 -8 160 -15 184 -6
17 -5 22 3 17 6 -4 14 -34 18 -67 4 -32 11 -62 16 -66 7 -3 8 18 4 58 -16 169
-19 269 -7 269 8 0 10 8 5 23 -4 12 -11 40 -15 62 -6 37 -7 35 -8 -22 0 -34
-6 -86 -12 -114 -11 -48 -13 -51 -25 -34 -8 10 -14 29 -14 41 0 37 -23 130
-28 115 -2 -8 1 -60 8 -116 14 -110 8 -187 -13 -166 -7 7 -14 49 -17 94 l-5
82 -13 -40 c-6 -22 -15 -82 -18 -133 -7 -95 -24 -138 -24 -59 0 24 -9 70 -20
103 -11 32 -20 67 -20 77 0 9 -4 17 -8 17 -4 0 -13 31 -20 68 -6 37 -18 83
-27 102 l-16 35 6 -45 c24 -177 26 -362 5 -375 -14 -9 -49 104 -56 185 -6 65
-9 78 -15 55 -3 -16 -7 -52 -8 -80 l-2 -50 -16 35 c-8 19 -19 42 -24 50 -5 8
-18 34 -30 57 -20 40 -20 42 -2 70 l18 28 -28 -18 c-15 -10 -32 -15 -36 -12
-5 3 -12 -25 -15 -62 -15 -195 -29 -236 -40 -124 -4 39 -11 73 -17 76 -5 4 -9
24 -9 46 0 32 -3 39 -20 39 -11 0 -20 1 -20 3 0 1 -11 33 -24 71 -27 79 -40
75 -26 -10 6 -32 10 -84 10 -114 0 -49 -1 -53 -14 -35 -7 11 -16 29 -18 40 -3
11 -2 -22 0 -74 4 -77 2 -93 -9 -89 -14 5 -21 36 -37 159 -6 53 -5 66 5 62 7
-3 13 -10 13 -16 0 -6 3 -7 6 -4 4 4 -1 18 -10 31 -18 28 -22 91 -6 101 6 3
10 18 9 33 0 23 -3 21 -17 -16 -10 -26 -21 -41 -29 -38 -8 3 -13 -2 -13 -14 0
-26 -8 -25 -38 3 -14 12 -22 16 -17 8 4 -8 2 -17 -6 -22 -11 -6 -11 -11 -1
-21 26 -26 7 -165 -22 -155 -20 7 -48 101 -51 171 -4 76 -10 90 -24 55 l-9
-24 -6 25 c-3 14 -10 48 -15 75 -9 44 -9 41 -4 -26 4 -64 0 -95 -23 -183 -15
-59 -31 -103 -35 -99 -5 5 -13 40 -20 78 -29 182 -35 180 -18 -5 12 -127 6
-210 -13 -176 -6 11 -8 43 -5 75 6 50 -13 190 -32 244 -3 9 -6 -67 -7 -170 0
-104 -4 -200 -7 -215 -11 -43 -30 -35 -24 10 2 20 -2 79 -11 130 -16 97 -16
91 25 225 3 9 1 17 -4 17 -5 0 -17 -22 -28 -50 -11 -27 -22 -50 -26 -50 -4 0
-10 12 -14 27 -3 14 -13 36 -21 47 -15 20 -16 20 -10 -9 3 -16 8 -50 12 -75 3
-25 10 -49 14 -55 14 -20 19 -60 13 -117 -3 -32 -9 -55 -14 -53 -8 5 -13 -18
-24 -97 -3 -27 -10 -48 -16 -48 -11 0 -11 74 0 160 5 36 12 85 15 110 5 33 4
39 -3 24 -5 -12 -14 -25 -20 -29 -6 -3 -11 -14 -11 -24 0 -10 -7 -32 -15 -47
-15 -29 -15 -29 -15 29 0 69 -19 156 -30 136 -4 -8 -11 -36 -14 -64 -14 -97
-24 -108 -49 -47 l-16 37 -1 -60 c-1 -96 -16 -98 -29 -5 -8 51 -9 86 -3 93 13
16 25 87 15 87 -5 0 -7 21 -6 48 3 53 3 54 -28 -45 -12 -40 -28 -73 -33 -73
-6 0 -21 -30 -33 -67 -16 -53 -23 -64 -28 -48 -22 61 -58 151 -63 155 -2 3 -2
-14 2 -37 8 -54 -9 -65 -28 -18 -9 21 -20 34 -26 30 -12 -7 -4 37 11 67 5 9 9
22 9 28 0 19 -19 0 -40 -38 -10 -20 -31 -50 -45 -67 l-26 -30 4 50 c2 28 1 66
-3 85 l-6 35 -13 -40 c-7 -22 -15 -47 -18 -55 -3 -11 -10 -8 -29 15 -29 36
-29 33 -5 -36 17 -50 18 -113 2 -124 -4 -2 -16 18 -26 46 -22 56 -38 66 -27
17 3 -18 6 -44 4 -58 -1 -14 -5 -77 -9 -140 -11 -159 -31 -122 -53 99 -10 104
-20 130 -20 55 0 -61 -15 -91 -25 -51 -4 15 -10 51 -14 80 l-7 52 -8 -60 c-3
-33 -10 -78 -14 -100 l-8 -40 -16 29 c-15 29 -15 28 -10 -42 4 -60 2 -73 -12
-78 -9 -3 -16 -18 -16 -33 -1 -25 -1 -25 -19 9 -10 19 -21 52 -25 73 -8 42 12
160 25 151 5 -3 9 11 9 32 0 31 -2 35 -14 24 -15 -12 -53 -116 -58 -160 -6
-52 -23 -22 -28 50 -4 66 -6 72 -17 53 -7 -12 -13 -33 -13 -47 0 -36 -11 -32
-37 12 -22 36 -23 36 -17 7 4 -16 10 -35 15 -41 5 -5 11 -55 14 -110 6 -91 5
-97 -9 -80 -9 11 -16 30 -16 43 0 14 -6 23 -15 23 -12 0 -13 -9 -9 -47 6 -42
5 -46 -8 -33 -20 20 -59 114 -73 175 -6 28 -16 48 -21 45 -16 -9 -7 -154 11
-191 17 -32 15 -31 -45 21 -62 54 -68 63 -89 130 -8 27 -10 29 -7 7 6 -45 -13
-42 -67 11 -29 27 -72 64 -97 81 l-44 32 -2 85 c-2 47 -8 92 -14 99 -7 8 -27
17 -46 21 -34 6 -34 6 -34 63 0 31 5 62 12 69 7 7 35 12 63 12 64 0 145 39
182 86 23 30 26 45 27 114 1 94 -24 87 215 64 248 -24 334 -12 425 57 49 38
111 116 134 169 8 19 20 71 26 115 l12 80 88 -4 88 -3 -13 23 c-17 33 -137
198 -168 232 -34 37 -69 45 -256 57 -878 55 -1195 72 -1235 65 -76 -14 -141
-82 -201 -209 -33 -69 -36 -114 -14 -177 21 -59 89 -173 132 -220 l35 -39 -63
0 c-122 0 -240 -49 -320 -131 l-48 -50 -14 28 c-8 16 -26 61 -42 101 -15 40
-29 71 -32 68 -7 -7 15 -96 39 -160 11 -28 22 -58 25 -67 5 -17 -94 -189 -109
-189 -22 0 12 507 43 642 6 26 9 53 6 60 -6 19 -33 -50 -63 -161 -25 -91 -44
-135 -44 -99 0 28 -51 171 -86 238 -35 69 -79 129 -88 119 -3 -3 12 -57 34
-120 21 -63 51 -173 65 -244 24 -115 27 -153 27 -320 -1 -231 -12 -530 -22
-565 -5 -19 -11 -3 -24 70 -37 205 -41 223 -124 530 -21 77 -46 191 -45 200 9
53 57 267 68 303 23 76 -3 45 -59 -72 l-51 -106 -6 140 c-4 77 -8 142 -9 145
-8 17 -21 -113 -29 -295 -5 -115 -17 -251 -26 -301 -29 -157 -43 -153 -71 25
-15 90 -19 165 -18 341 1 124 0 218 -2 210 -1 -8 -10 -64 -20 -125 -9 -60 -19
-114 -22 -120 -7 -11 -24 99 -47 305 -26 231 -30 252 -37 244z m2509 -175 c89
-33 154 -166 139 -282 -20 -144 -135 -266 -254 -267 -80 0 -145 40 -185 115
-18 32 -22 57 -21 125 0 73 4 93 28 139 67 129 199 206 293 170z m-3688 -634
c-14 -124 -24 -168 -32 -145 -3 8 -17 62 -31 120 l-27 106 26 89 c39 132 47
136 63 29 11 -73 11 -109 1 -199z m720 128 c6 -21 11 -60 10 -88 l0 -50 -24
52 c-17 38 -22 63 -18 88 7 45 19 44 32 -2z m1702 -123 c-2 -150 10 -182 78
-219 34 -18 65 -26 125 -29 45 -3 84 -10 88 -16 9 -13 10 -88 2 -110 -3 -9
-15 -16 -25 -16 -42 0 -64 -74 -44 -150 15 -54 14 -55 -7 -70 -12 -8 -42 -32
-66 -53 -44 -37 -62 -40 -62 -9 0 28 -59 144 -98 192 -46 56 -73 79 -176 153
-99 71 -198 167 -233 226 l-25 43 29 41 c35 50 88 89 168 122 52 21 73 25 154
22 l93 -2 -1 -125z m264 90 c151 -17 141 -13 149 -66 10 -73 0 -78 -118 -70
-55 3 -117 9 -138 12 l-38 7 0 62 c0 66 5 78 29 71 9 -3 61 -10 116 -16z
m-2416 -121 c11 -41 24 -105 28 -144 10 -84 2 -230 -12 -230 -20 0 -35 77 -45
227 -5 84 -12 180 -15 213 -5 57 -5 59 9 34 9 -15 24 -60 35 -100z m-178 -151
c11 -116 10 -374 -2 -328 -8 35 -29 308 -29 390 0 75 22 31 31 -62z m1968 -31
c25 -26 67 -64 95 -84 193 -138 219 -163 278 -258 28 -45 58 -128 58 -160 0
-13 -22 -42 -58 -76 -109 -103 -98 -108 -97 49 0 135 -1 138 -32 203 -32 65
-106 159 -125 159 -5 0 6 -19 25 -43 83 -100 112 -196 104 -335 -9 -164 -49
-239 -60 -116 -9 96 -42 184 -94 255 -24 34 -47 59 -50 56 -3 -3 6 -30 20 -59
42 -90 60 -167 61 -259 0 -73 -4 -93 -27 -141 -15 -31 -35 -59 -43 -62 -9 -4
-52 -3 -97 0 l-80 7 7 83 c5 73 23 175 42 242 13 45 -13 20 -49 -48 -41 -74
-64 -100 -54 -59 3 13 13 65 22 114 11 58 31 119 56 172 21 45 39 85 39 88 0
15 -73 -82 -106 -142 -20 -35 -40 -61 -45 -56 -16 16 21 286 58 423 14 53 19
69 44 135 l11 30 26 -35 c15 -19 47 -56 71 -83z m-1378 8 c7 -37 9 -76 4 -100
l-8 -40 -8 30 c-5 17 -12 66 -15 110 -8 94 7 94 27 0z m345 -127 c-4 -84 -11
-182 -17 -218 -15 -95 -41 -214 -50 -224 -12 -14 -22 162 -15 268 6 92 23 185
46 246 5 14 14 37 19 53 6 15 14 27 17 27 4 0 4 -69 0 -152z m504 -46 c23
-151 24 -165 11 -157 -18 11 -40 101 -51 206 -11 110 -4 172 12 114 5 -17 17
-90 28 -163z m-1678 -112 c-12 -127 -40 -252 -62 -273 -9 -9 -11 -1 -6 38 3
28 13 113 21 190 9 77 21 165 27 195 l11 55 10 -40 c7 -27 7 -80 -1 -165z
m4891 -62 c-5 -120 -12 -176 -24 -183 -19 -12 -21 29 -9 151 9 78 18 124 25
124 8 0 10 -28 8 -92z m-764 -65 c-1 -61 -2 -65 -11 -36 -9 28 -4 103 7 103 3
0 5 -30 4 -67z m1267 -22 c18 -76 17 -94 -8 -213 -17 -80 -24 -97 -29 -78 -9
32 -11 343 -3 365 7 16 8 16 17 0 5 -10 15 -43 23 -74z m609 -99 c-2 -2 -8 6
-15 17 -18 35 -23 113 -9 146 12 28 13 24 20 -65 3 -52 5 -97 4 -98z m-5305
84 c-7 -23 -14 -45 -15 -51 -9 -30 -3 42 7 87 9 39 13 47 16 29 2 -14 -2 -43
-8 -65z m4367 52 c-3 -8 -6 -5 -6 6 -1 11 2 17 5 13 3 -3 4 -12 1 -19z m1071
-66 c3 -62 2 -66 -13 -48 -19 25 -22 147 -3 128 7 -7 14 -42 16 -80z m-1774
53 c-4 -8 -8 -15 -10 -15 -2 0 -4 7 -4 15 0 8 4 15 10 15 5 0 7 -7 4 -15z
m2104 -167 c-3 -60 -4 -62 -17 -38 -21 35 -21 180 -1 205 14 17 15 13 18 -43
2 -34 2 -90 0 -124z m-2288 126 c0 -27 -4 -43 -10 -39 -5 3 -10 24 -10 46 0
21 5 39 10 39 6 0 10 -21 10 -46z m167 -31 c-3 -10 -5 -2 -5 17 0 19 2 27 5
18 2 -10 2 -26 0 -35z m713 -8 c0 -25 -4 -45 -10 -45 -11 0 -13 33 -4 68 10
34 14 27 14 -23z m-841 -52 c1 -34 -12 -44 -23 -17 -8 22 -7 89 2 98 8 9 19
-33 21 -81z m2056 47 c9 -51 -2 -133 -21 -157 -12 -16 -13 -10 -14 52 0 127
21 190 35 105z m-2214 -63 c-8 -8 -11 -2 -11 19 0 40 14 54 18 19 2 -15 -1
-32 -7 -38z m2130 3 c-9 -23 -10 -23 -10 11 -1 20 2 39 7 43 11 12 14 -27 3
-54z m-1711 -25 c0 -35 -4 -67 -10 -70 -6 -4 -10 22 -10 70 0 48 4 74 10 70 6
-3 10 -35 10 -70z m1490 68 c0 -5 5 -36 10 -71 12 -70 5 -96 -17 -67 -15 22
-18 145 -3 145 6 0 10 -3 10 -7z m437 -94 c2 -76 1 -90 -9 -74 -6 11 -14 55
-16 99 -4 64 -2 78 9 74 10 -3 15 -29 16 -99z m-934 24 c4 -38 6 -108 6 -158
-1 -83 -2 -86 -11 -45 -14 68 -22 270 -11 270 6 0 13 -30 16 -67z m-1775 -98
l1 -20 -9 20 c-5 11 -8 31 -8 45 l0 25 8 -25 c4 -14 8 -34 8 -45z m135 -55
c-8 -94 -13 -87 -12 16 0 56 3 82 9 69 4 -11 5 -49 3 -85z"/>
<path d="M5810 4239 c-33 -13 -78 -57 -98 -94 -24 -46 -20 -134 7 -179 56 -89
187 -102 257 -24 58 63 73 170 32 236 -36 58 -131 88 -198 61z"/>
<path d="M6032 3240 c0 -14 2 -19 5 -12 2 6 2 18 0 25 -3 6 -5 1 -5 -13z"/>
<path d="M6053 3127 c4 -44 13 -88 18 -96 10 -16 7 49 -7 132 -12 71 -20 46
-11 -36z"/>
<path d="M5412 3090 c0 -14 2 -19 5 -12 2 6 2 18 0 25 -3 6 -5 1 -5 -13z"/>
<path d="M5421 3034 c0 -11 3 -14 6 -6 3 7 2 16 -1 19 -3 4 -6 -2 -5 -13z"/>
<path d="M1493 2093 c-22 -8 -14 -52 32 -197 45 -141 64 -176 95 -176 28 0 43
26 75 129 17 53 35 96 40 96 5 0 23 -44 40 -98 31 -101 51 -129 86 -120 26 7
30 16 89 193 54 158 55 180 8 180 -21 0 -44 -47 -72 -150 -10 -36 -23 -74 -28
-84 -14 -26 -20 -13 -48 94 -30 112 -45 140 -74 140 -30 0 -41 -14 -56 -70
-23 -91 -53 -180 -60 -180 -8 0 -33 78 -59 177 -11 40 -34 74 -49 72 -4 0 -13
-3 -19 -6z"/>
<path d="M2156 2078 c-8 -13 -38 -79 -66 -148 -79 -192 -76 -181 -54 -197 25
-19 35 -13 62 35 l23 42 79 0 c76 0 78 0 90 -29 18 -44 47 -68 68 -55 9 6 18
19 20 28 4 19 -113 287 -141 322 -24 30 -62 31 -81 2z m74 -134 c15 -37 20
-58 13 -65 -16 -16 -87 -7 -91 12 -4 20 34 109 46 109 6 0 20 -25 32 -56z"/>
<path d="M2426 2087 c-34 -25 -16 -51 42 -60 l52 -9 0 -131 c0 -73 4 -138 9
-145 4 -8 19 -12 32 -10 24 3 24 4 27 137 1 79 7 140 14 148 6 7 29 13 52 13
23 0 50 6 59 13 16 11 16 14 2 35 -15 21 -23 22 -144 22 -89 0 -133 -4 -145
-13z"/>
<path d="M2870 2093 c-92 -35 -137 -168 -91 -268 34 -74 85 -105 172 -105 52
0 111 24 141 56 26 29 32 68 13 84 -14 11 -21 8 -53 -22 -63 -60 -99 -71 -151
-44 -43 23 -64 62 -63 122 1 83 40 124 119 124 28 0 44 -8 75 -40 43 -43 59
-48 77 -26 21 26 -17 85 -76 115 -22 11 -136 14 -163 4z"/>
<path d="M3216 2084 c-13 -13 -16 -42 -16 -162 0 -165 4 -189 32 -197 35 -12
48 12 48 87 l0 69 88 -3 87 -3 3 -67 c2 -55 7 -70 22 -78 15 -8 24 -6 40 10
18 18 20 33 20 159 0 146 -7 184 -36 195 -29 11 -43 -12 -46 -82 l-3 -67 -85
0 -85 0 -5 68 c-3 45 -10 71 -20 77 -21 13 -26 12 -44 -6z"/>
<path d="M3650 2081 c-5 -11 -10 -84 -10 -166 0 -150 7 -185 38 -185 38 0 42
19 42 181 0 130 -3 160 -16 173 -21 21 -41 20 -54 -3z"/>
<path d="M3840 2081 c-6 -11 -10 -88 -10 -179 0 -173 6 -195 49 -172 19 10 21
20 21 125 0 68 4 115 10 115 5 0 44 -52 87 -116 81 -123 106 -144 142 -125 21
12 21 17 19 189 l-3 177 -24 3 c-13 2 -28 -2 -32 -10 -5 -7 -9 -61 -9 -119 0
-58 -3 -109 -6 -112 -4 -4 -43 46 -86 110 -44 65 -85 121 -91 125 -22 14 -56
8 -67 -11z"/>
<path d="M4334 2074 c-56 -36 -76 -74 -81 -153 -4 -56 -1 -73 19 -111 32 -60
89 -90 173 -90 97 0 175 61 175 137 0 50 -31 65 -126 61 -68 -3 -79 -6 -82
-22 -5 -26 15 -36 76 -36 45 0 52 -3 52 -20 0 -33 -57 -62 -110 -57 -146 15
-145 257 1 257 32 0 48 -7 84 -41 33 -31 49 -39 65 -34 35 11 23 62 -23 99
-34 27 -48 31 -110 34 -64 3 -76 1 -113 -24z"/>
<path d="M4944 2086 c-43 -19 -92 -82 -99 -128 -23 -134 58 -238 185 -238 60
0 124 24 153 58 28 31 34 98 12 122 -15 17 -31 20 -94 20 -87 0 -112 -10 -95
-37 8 -13 25 -18 60 -19 69 -1 74 -2 74 -18 0 -21 -47 -55 -87 -62 -73 -14
-143 50 -143 130 0 49 34 102 74 116 55 19 84 12 126 -30 43 -43 60 -49 80
-25 20 24 -6 72 -55 100 -48 29 -138 34 -191 11z"/>
<path d="M5318 2090 c-16 -10 -18 -30 -18 -186 0 -152 2 -175 16 -181 34 -13
49 11 52 81 l3 66 44 0 c52 0 65 -12 106 -91 31 -63 46 -70 73 -40 20 22 10
55 -31 110 l-26 33 26 22 c57 48 55 135 -5 170 -38 23 -212 34 -240 16z m193
-70 c24 -14 25 -52 0 -74 -14 -13 -33 -16 -77 -14 -59 3 -59 3 -62 36 -5 55 1
62 63 62 31 0 65 -5 76 -10z"/>
<path d="M5817 2082 c-9 -10 -23 -36 -31 -57 -7 -22 -28 -70 -44 -107 -69
-148 -73 -166 -47 -188 19 -16 47 6 65 51 l13 30 80 -3 81 -3 20 -37 c24 -46
44 -54 69 -29 20 19 19 20 -13 88 -18 37 -48 106 -67 153 -19 47 -42 93 -50
103 -21 22 -55 22 -76 -1z m69 -145 c12 -31 19 -58 16 -61 -9 -10 -90 -7 -97
3 -8 13 38 122 50 118 5 -2 19 -29 31 -60z"/>
<path d="M6153 2085 c-17 -7 -36 -22 -42 -34 -16 -29 -13 -93 5 -120 20 -28
72 -51 116 -51 49 0 83 -21 83 -50 0 -60 -104 -65 -158 -7 -23 25 -32 29 -45
20 -24 -15 -26 -38 -6 -69 48 -72 208 -73 266 0 10 11 18 37 18 56 0 66 -44
102 -139 115 -64 9 -97 35 -81 65 22 41 87 38 138 -5 50 -42 79 -28 59 28 -19
57 -137 86 -214 52z"/>
<path d="M6520 2082 c-26 -13 -38 -27 -48 -59 -26 -80 19 -129 138 -148 61
-10 80 -21 80 -49 0 -27 -35 -46 -86 -46 -26 0 -44 9 -71 35 -39 38 -54 43
-73 21 -17 -21 6 -64 49 -93 26 -17 48 -23 91 -23 128 0 200 73 156 159 -18
34 -46 47 -120 56 -71 9 -118 43 -100 72 28 45 92 41 149 -8 41 -37 65 -33 65
11 0 24 -9 36 -42 60 -34 25 -50 30 -97 30 -31 -1 -71 -8 -91 -18z"/>
<path d="M7085 2088 c-81 -44 -117 -131 -95 -231 18 -85 84 -137 175 -137 73
0 145 35 172 83 17 31 16 83 -3 101 -25 25 -158 26 -183 1 -12 -12 -12 -17 -1
-30 10 -13 24 -15 59 -11 83 11 95 -28 20 -67 -66 -35 -136 -6 -164 68 -15 39
-16 52 -6 87 19 60 53 88 112 88 44 0 53 -4 89 -40 42 -42 67 -50 76 -25 12
29 -7 65 -48 95 -36 27 -49 30 -112 30 -39 0 -80 -6 -91 -12z"/>
<path d="M7440 2074 c-11 -29 -12 -249 -2 -309 5 -27 13 -41 25 -43 34 -7 47
17 47 84 l0 64 45 0 c45 0 46 -1 85 -62 52 -82 57 -88 81 -88 42 0 37 49 -11
122 l-31 46 31 30 c24 25 30 39 30 74 0 80 -52 108 -196 108 -92 0 -95 -1
-104 -26z m214 -60 c43 -43 1 -84 -86 -84 l-58 0 0 50 0 50 64 0 c45 0 69 -5
80 -16z"/>
<path d="M7914 2085 c-105 -46 -137 -218 -57 -307 47 -52 154 -76 224 -50 82
32 127 120 109 214 -6 28 -10 52 -10 54 0 14 -70 78 -98 89 -43 18 -126 18
-168 0z m130 -59 c52 -22 76 -60 76 -121 0 -44 -5 -58 -28 -83 -37 -40 -75
-49 -126 -31 -100 35 -109 193 -13 234 41 18 50 18 91 1z"/>
<path d="M8250 2085 c-11 -13 -3 -44 41 -177 30 -89 60 -167 67 -175 20 -20
50 -16 66 10 8 12 24 59 36 104 32 119 42 121 73 15 15 -48 34 -97 42 -109 18
-25 56 -30 73 -10 19 23 114 306 110 330 -2 16 -10 22 -28 22 -30 0 -41 -20
-75 -135 -28 -91 -40 -118 -50 -108 -4 4 -18 50 -32 104 -29 115 -36 130 -63
137 -37 10 -43 -4 -101 -201 -7 -23 -16 -39 -21 -34 -4 4 -21 52 -37 106 -38
124 -68 161 -101 121z"/>
</g>
</svg>
